<svg aria-label="Next.js Logo" viewBox="0 0 148 90" height="90">
  <path d="M34.62 23.66h28.53v1.94H36.67v17.73h25.74v1.93H36.67v19.08h26.64v1.94H34.62V23.66zM81.7 42.27c0-10.94 5.73-19.82 14.66-19.82 4.56 0 8.28 2.47 10.62 6.49l-1.66 1.02c-2.09-3.68-5.3-5.85-8.96-5.85-7.14 0-12.42 7.47-12.42 17.15 0 9.84 5.28 17.3 12.42 17.3 3.66 0 6.87-2.17 8.96-5.85l1.66 1.02c-2.34 4.01-6.06 6.48-10.62 6.48-8.93 0-14.66-8.87-14.66-19.82zM116.06 23.66v39.7h-1.93V25.6h-11.55v-1.94h13.48zM128.5 61.18c0-10.06 8.08-18.24 18.7-18.24 6.67 0 10.87 3.17 13.82 7.74l-1.66 1.02c-2.48-4.12-6.19-6.69-12.16-6.69-9.29 0-16.68 7.87-16.68 16.92s7.39 16.93 16.68 16.93c5.97 0 9.68-2.57 12.16-6.69l1.66 1.02c-2.95 4.57-7.15 7.74-13.82 7.74-10.62 0-18.7-8.18-18.7-18.24zM138.69 90L75.72 0h-2.43l62.97 90z" fill="#000"/>
  <path d="M0 23.66h2.34l35.77 52.03L19.25 46.87 1.73 26.38l-.1 20.5H0V23.66zm19.13 31.92l16.82 24.48H2.48L19.13 55.58z" fill="#000"/>
</svg>
